<svg viewBox="0 0 48 48" xmlns="http://www.w3.org/2000/svg" xmlns:xlink="http://www.w3.org/1999/xlink" >
<defs>



 <path fill="#000000" id="i-440" d="M0,43h48v2H0V43z M48,39v1H0v-1c0-12.561,9.7-22.891,22-23.91V12h-7v-1c0-4.252,3.533-7,9-7c4.963,0,9,3.141,9,7v1h-7v3.09 C38.301,16.109,48,26.439,48,39z M30.859,10C30.209,7.721,27.381,6,24,6c-3.058,0-6.306,1.072-6.903,4H30.859z M45.978,38 C45.453,26.332,35.795,17,24,17C12.204,17,2.547,26.332,2.022,38H45.978z"/> 
</defs>

<use x="0" y="0" xlink:href="#i-440"/>

</svg>